<svg width="512" height="512" viewBox="0 0 24 24" fill="white" xmlns="http://www.w3.org/2000/svg">
  <rect width="24" height="24" rx="6" fill="#0057B8"/>
  <path d="M12 2C10.34 2 9 3.34 9 5C9 6.66 10.34 8 12 8C13.66 8 15 6.66 15 5C15 3.34 13.66 2 12 2ZM16.94 9.34L14 10.83V20H16V14H18V20H20V10.83L17.06 9.34C16.73 9.19 16.37 9.09 16 9.04V9C16 8.45 15.55 8 15 8H9C8.45 8 8 8.45 8 9V9.04C7.63 9.09 7.27 9.19 6.94 9.34L4 10.83V20H6V14H8V20H10V10.83L7.06 9.34C6.41 9.04 5.72 8.83 5 8.73V7H19V8.73C18.28 8.83 17.59 9.04 16.94 9.34Z" fill="white"/>
</svg>
