<svg width="512" height="512" viewBox="0 0 24 24" fill="white" xmlns="http://www.w3.org/2000/svg">
  <rect width="24" height="24" rx="6" fill="#0057B8"/>
  <path d="M12 15.5C10.07 15.5 8.5 13.93 8.5 12C8.5 10.07 10.07 8.5 12 8.5C13.93 8.5 15.5 10.07 15.5 12C15.5 13.93 13.93 15.5 12 15.5ZM12 4C10.95 4 10.09 4.92 10.23 5.97C8.08 6.5 6.5 8.29 6.5 10.5C6.5 12.71 8.08 14.5 10.23 15.03C10.09 16.08 10.95 17 12 17C13.05 17 13.91 16.08 13.77 15.03C15.92 14.5 17.5 12.71 17.5 10.5C17.5 8.29 15.92 6.5 13.77 5.97C13.91 4.92 13.05 4 12 4Z" fill="white"/>
</svg>
